<?xml version="1.0" encoding="UTF-8"?>
<!-- Generator: visioncortex VTracer 0.6.12 -->
<svg version="1.1" xmlns="http://www.w3.org/2000/svg" viewBox="0 0 256 256" width="256" height="256">
<path d="M0 0 C0.341 1.879 0.341 1.879 0.293 4.133 C0.283 4.938 0.274 5.744 0.264 6.574 C0.239 7.416 0.213 8.258 0.188 9.125 C0.174 9.974 0.16 10.824 0.146 11.699 C0.111 13.8 0.057 15.9 0 18 C0.619 18.268 1.238 18.536 1.875 18.812 C4 20 4 20 6 23 C6.47 27.234 6.441 29.309 4.125 32.938 C2 35 2 35 0 35 C0.081 38.751 0.194 42.5 0.312 46.25 C0.335 47.313 0.358 48.377 0.381 49.473 C0.416 50.497 0.452 51.522 0.488 52.578 C0.514 53.521 0.541 54.463 0.568 55.435 C1 58 1 58 2.505 59.997 C5.433 63.919 4.468 69.223 4.438 73.938 C4.457 75.022 4.477 76.107 4.498 77.225 C4.494 83.566 4.016 86.06 0 91 C-0.657 94.926 -0.697 98.838 -0.75 102.812 C-0.78 103.887 -0.809 104.961 -0.84 106.068 C-0.91 108.712 -0.963 111.355 -1 114 C-0.078 113.96 0.843 113.92 1.793 113.879 C5.362 114.014 7.17 114.876 9.793 117.312 C12.146 120.602 12.394 124.053 12 128 C9.368 133.742 2.865 141.467 -3.156 143.855 C-5.836 144.066 -6.905 142.571 -9 141 C-13.347 141.643 -16.692 144.162 -20.312 146.5 C-21.762 147.42 -23.213 148.34 -24.664 149.258 C-25.394 149.721 -26.124 150.184 -26.876 150.661 C-38.578 158.037 -50.598 164.92 -62.661 171.683 C-64.088 172.487 -65.512 173.297 -66.929 174.118 C-73.899 178.155 -79.902 180.872 -88 179 C-93.601 176.792 -98.769 173.965 -104 171 C-104.914 170.486 -105.829 169.973 -106.771 169.443 C-112.874 166.008 -118.948 162.524 -125 159 C-125 158.34 -125 157.68 -125 157 C-125.776 156.798 -126.552 156.595 -127.352 156.387 C-132.418 154.461 -136.789 151.677 -141.375 148.812 C-141.829 148.536 -141.829 148.536 -144.125 147.139 C-160.159 137.193 -160.159 137.193 -163 128 C-163.936 123.422 -164.116 119.082 -164.098 114.414 C-164.096 113.712 -164.095 113.01 -164.093 112.287 C-164.088 110.067 -164.075 107.846 -164.062 105.625 C-164.057 104.111 -164.053 102.596 -164.049 101.082 C-164.038 97.388 -164.021 93.694 -164 90 C-164.639 89.711 -165.279 89.423 -165.938 89.125 C-168 88 -168 88 -169 86 C-169.269 82.047 -169.232 78.086 -169.25 74.125 C-169.26 73.574 -169.26 73.574 -169.312 70.785 C-169.318 69.724 -169.323 68.663 -169.328 67.57 C-169.333 67.084 -169.333 67.084 -169.356 64.625 C-168.939 61.552 -167.845 60.428 -166 58 C-165.385 54.189 -165.536 50.356 -165.562 46.5 C-165.543 45.455 -165.523 44.409 -165.502 43.332 C-165.503 42.325 -165.503 41.319 -165.504 40.281 C-165.503 39.823 -165.503 39.823 -165.498 37.502 C-166.146 34.274 -167.574 33.144 -170 31 C-171.427 28.147 -171.31 26.165 -171 23 C-169.125 20.125 -169.125 20.125 -167 18 C-166.34 18 -165.68 18 -165 18 C-165 12.06 -165 6.12 -165 0 C-148.469 -8.485 -131.989 -15.244 -114 -20 C-113.313 -20.182 -112.626 -20.364 -111.917 -20.552 C-76.325 -29.497 -30.61 -20.407 0 0 Z " fill="#2B3264" transform="translate(211,50)"/>
<path d="M0 0 C39.27 0 78.54 0 119 0 C119 20.832 114.015 38.227 100 54 C92.19 61.718 83.972 66.618 74 71 C73.227 71.383 72.453 71.766 71.656 72.16 C61.986 75.218 49.628 73.997 40.691 69.535 C39.803 69.029 38.915 68.522 38 68 C37.081 67.504 36.162 67.007 35.215 66.496 C21.496 58.489 7.966 43.547 3.393 27.927 C2.812 25.564 2.302 23.196 1.812 20.812 C1.635 20.026 1.458 19.239 1.275 18.428 C-0.082 11.964 0 6.888 0 0 Z " fill="#FCFCFD" transform="translate(69,113)"/>
<path d="M0 0 C0.744 0.157 1.488 0.314 2.254 0.475 C5.204 1.2 7.338 1.835 9.503 4.016 C11.099 6.876 10.827 8.091 10.117 11.254 C9.907 12.223 9.696 13.193 9.479 14.192 C9.239 15.201 8.998 16.21 8.75 17.25 C8.527 18.235 8.305 19.219 8.075 20.234 C7.38 23.229 6.634 26.208 5.875 29.188 C5.631 30.201 5.388 31.215 5.137 32.26 C4.888 33.235 4.639 34.21 4.383 35.215 C4.274 35.651 4.274 35.651 3.723 37.859 C2.462 40.958 1.523 42.324 -1.25 44.25 C-4.324 44.836 -7.347 44.811 -10.469 44.781 C-11.364 44.785 -12.259 44.789 -13.181 44.793 C-15.07 44.796 -16.96 44.788 -18.849 44.771 C-21.74 44.75 -24.629 44.771 -27.52 44.797 C-29.357 44.794 -31.194 44.789 -33.031 44.781 C-33.463 44.785 -33.463 44.785 -35.648 44.806 C-41.626 44.712 -41.626 44.712 -44.77 42.384 C-46.592 39.758 -47.145 37.637 -47.75 34.5 C-48.532 30.67 -49.326 26.865 -50.324 23.086 C-50.509 22.386 -50.693 21.685 -50.883 20.964 C-51.243 19.606 -51.609 18.25 -51.98 16.896 C-53.102 12.59 -53.416 8.69 -53.25 4.25 C-37.96 -4.571 -16.84 -3.629 0 0 Z " fill="#F8FAFC" transform="translate(150.25,63.75)"/>
<path d="M0 0 C0 6.27 0 12.54 0 19 C-2.64 19.66 -5.28 20.32 -8 21 C-10.361 24.541 -10.573 25.828 -10 30 C-9.172 30.862 -8.345 31.725 -7.492 32.613 C-4.055 36.556 -4.428 40.363 -4.688 45.375 C-4.71 46.206 -4.733 47.038 -4.756 47.895 C-4.814 49.93 -4.904 51.965 -5 54 C-8.339 51.298 -10.272 49.339 -10.75 45.066 C-10.849 43.566 -10.932 42.065 -11 40.562 C-12.319 24.246 -18.766 10.108 -30.82 -1.195 C-42.603 -10.951 -55.905 -16.126 -71.105 -16.203 C-71.545 -16.206 -71.545 -16.206 -73.77 -16.22 C-75.628 -16.23 -77.487 -16.236 -79.345 -16.24 C-82.161 -16.25 -84.976 -16.281 -87.791 -16.312 C-105.219 -16.416 -105.219 -16.416 -113 -13 C-113.928 -12.635 -114.856 -12.27 -115.812 -11.895 C-131.205 -4.281 -142.468 8.214 -148.812 24.188 C-151.128 31.622 -152.229 38.395 -152.363 46.203 C-153.218 49.956 -155.15 51.517 -158 54 C-158.135 51.103 -158.234 48.212 -158.312 45.312 C-158.354 44.496 -158.396 43.679 -158.439 42.838 C-158.53 38.356 -158.563 36.648 -155.516 33.141 C-154.685 32.434 -153.855 31.728 -153 31 C-152.369 27.002 -152.321 24.993 -154.625 21.625 C-157 20 -157 20 -163 19 C-163 13.39 -163 7.78 -163 2 C-162.34 2 -161.68 2 -161 2 C-161 1.01 -161 0.02 -161 -1 C-105.943 -27.595 -54.833 -27.417 0 0 Z " fill="#EAEAF0" transform="translate(210,49)"/>
<path d="M0 0 C3.511 1.755 6.159 3.566 9.25 5.938 C15.371 10.417 20.901 13.716 28.805 13.344 C36.759 12.098 42.965 8.775 49.027 3.586 C50.942 2.047 52.768 1.009 55 0 C55.759 0.554 56.519 1.109 57.301 1.68 C58.295 2.404 59.289 3.129 60.312 3.875 C61.299 4.594 62.285 5.314 63.301 6.055 C65.175 7.406 67.078 8.718 69 10 C68.794 11.811 68.794 11.811 68 14 C65.966 15.552 65.966 15.552 63.293 17.023 C62.319 17.567 61.346 18.111 60.343 18.671 C59.302 19.233 58.26 19.796 57.188 20.375 C56.135 20.952 55.082 21.529 53.997 22.124 C51.922 23.257 49.843 24.384 47.761 25.504 C45.551 26.701 43.367 27.926 41.191 29.184 C34.765 32.743 29.324 34.698 22 33 C16.399 30.781 11.242 27.951 6 25 C4.262 24.053 2.524 23.106 0.785 22.16 C-0.957 21.193 -2.698 20.223 -4.438 19.25 C-5.273 18.791 -6.108 18.331 -6.969 17.858 C-7.741 17.415 -8.513 16.972 -9.309 16.516 C-9.998 16.127 -10.686 15.738 -11.396 15.337 C-13 14 -13 14 -14 10 C-9.38 6.7 -4.76 3.4 0 0 Z " fill="#C5C5ED" transform="translate(101,196)"/>
<path d="M0 0 C0 0.66 0 1.32 0 2 C-1.076 2.329 -2.153 2.657 -3.262 2.996 C-13.497 6.271 -21.612 10.22 -30 17 C-30.342 17.277 -30.342 17.277 -32.074 18.676 C-42.833 28.419 -50.384 44.534 -51.164 59.055 C-51.259 61.103 -51.328 63.153 -51.363 65.203 C-52.218 68.956 -54.15 70.517 -57 73 C-57.135 70.103 -57.234 67.212 -57.312 64.312 C-57.354 63.496 -57.396 62.679 -57.439 61.838 C-57.53 57.356 -57.563 55.648 -54.516 52.141 C-53.685 51.434 -52.855 50.728 -52 50 C-51.369 46.002 -51.321 43.993 -53.625 40.625 C-56 39 -56 39 -62 38 C-62 32.39 -62 26.78 -62 21 C-61.34 21 -60.68 21 -60 21 C-60 20.01 -60 19.02 -60 18 C-48.97 12.672 -37.929 7.68 -26.25 3.938 C-25.371 3.651 -24.493 3.365 -23.587 3.07 C-15.81 0.673 -8.136 -0.214 0 0 Z " fill="#EBECF1" transform="translate(109,30)"/>
<path d="M0 0 C0.99 0.33 1.98 0.66 3 1 C3.969 3.871 4.742 6.624 5.438 9.562 C5.649 10.411 5.86 11.26 6.077 12.135 C6.512 13.891 6.943 15.648 7.368 17.407 C7.963 19.848 8.581 22.282 9.211 24.715 C12 35.556 12 35.556 12 39 C0.45 39 -11.1 39 -23 39 C-23 27.239 -20.124 17.362 -11.785 8.699 C-8.113 5.357 -4.457 2.246 0 0 Z " fill="#CECEF6" transform="translate(90,70)"/>
<path d="M0 0 C8.18 1.459 15.366 9.477 20 16 C24.093 23.539 25 29.162 25 38 C13.78 38 2.56 38 -9 38 C-8.346 32.77 -7.673 28.195 -6.406 23.164 C-6.098 21.936 -5.79 20.707 -5.473 19.441 C-5.152 18.182 -4.831 16.923 -4.5 15.625 C-4.175 14.33 -3.851 13.034 -3.527 11.738 C-1.141 2.281 -1.141 2.281 0 0 Z " fill="#CFCFF7" transform="translate(165,70)"/>
<path d="M0 0 C4.344 2.223 6.913 4.923 8.941 9.305 C9.84 14.435 9.719 18.808 6.816 23.242 C3.63 27.006 0.524 28.968 -4.453 29.617 C-10.159 29.891 -13.679 29.267 -18.059 25.305 C-21.995 20.954 -22.697 17.387 -22.441 11.703 C-21.654 6.769 -19.018 4.172 -15.434 0.93 C-10.349 -1.518 -5.393 -1.822 0 0 Z " fill="#30376A" transform="translate(104.05859375,118.6953125)"/>
<path d="M0 0 C3.458 3.128 6.21 5.779 6.973 10.551 C7.165 15.532 6.468 19.16 3.625 23.375 C-1.194 27.833 -5.299 28.886 -11.727 28.867 C-16.403 27.998 -19.338 24.879 -22.375 21.375 C-24.51 17.105 -24.095 11.987 -23.375 7.375 C-18.279 -1.492 -9.36 -4.507 0 0 Z " fill="#2D3366" transform="translate(168.375,119.625)"/>
<path d="M0 0 C0.33 0 0.66 0 1 0 C1 5.94 1 11.88 1 18 C2.32 18.66 3.64 19.32 5 20 C7.492 23.737 7.458 25.573 7 30 C5.125 32.938 5.125 32.938 3 35 C2.34 35 1.68 35 1 35 C1.081 38.751 1.194 42.5 1.312 46.25 C1.335 47.313 1.358 48.377 1.381 49.473 C1.416 50.497 1.452 51.522 1.488 52.578 C1.514 53.521 1.541 54.463 1.568 55.435 C2 58 2 58 3.507 59.995 C5.456 62.612 5.387 64.264 5.398 67.5 C5.4 68.026 5.4 68.026 5.41 70.688 C5.399 71.781 5.387 72.874 5.375 74 C5.387 75.093 5.398 76.186 5.41 77.312 C5.406 78.364 5.402 79.416 5.398 80.5 C5.395 81.459 5.392 82.418 5.388 83.406 C4.914 86.572 4.347 87.814 2 90 C-1.687 91.25 -1.687 91.25 -5 92 C-5.025 87.07 -5.043 82.141 -5.055 77.211 C-5.06 75.534 -5.067 73.857 -5.075 72.18 C-5.088 69.77 -5.093 67.359 -5.098 64.949 C-5.103 64.199 -5.108 63.449 -5.113 62.676 C-5.114 59.51 -5.009 57.027 -4 54 C-4.66 53.67 -5.32 53.34 -6 53 C-5.942 51.77 -5.884 50.54 -5.824 49.273 C-5.777 47.641 -5.732 46.008 -5.688 44.375 C-5.646 43.567 -5.604 42.759 -5.561 41.926 C-5.473 37.619 -5.592 34.938 -8.48 31.605 C-9.312 30.746 -10.143 29.886 -11 29 C-11.625 25.938 -11.625 25.938 -11 23 C-8.875 20.125 -8.875 20.125 -6 18 C-4.02 18 -2.04 18 0 18 C0 12.06 0 6.12 0 0 Z " fill="#2E3563" transform="translate(210,50)"/>
<path d="M0 0 C0.66 0 1.32 0 2 0 C2 0.66 2 1.32 2 2 C1.34 2 0.68 2 0 2 C0 7.61 0 13.22 0 19 C1.98 19 3.96 19 6 19 C9.635 21.608 10.834 23.07 11.625 27.5 C10.85 31.838 9.421 33.312 6 36 C5.34 36 4.68 36 4 36 C4.072 37.194 4.144 38.387 4.219 39.617 C5.182 57.078 5.1 74.52 5 92 C-1.427 91.515 -1.427 91.515 -3.913 89.281 C-5.229 86.52 -5.388 84.557 -5.398 81.5 C-5.4 80.974 -5.4 80.974 -5.41 78.312 C-5.399 77.219 -5.387 76.126 -5.375 75 C-5.387 73.907 -5.398 72.814 -5.41 71.688 C-5.406 70.636 -5.402 69.584 -5.398 68.5 C-5.395 67.541 -5.392 66.582 -5.388 65.594 C-4.935 62.565 -3.818 61.405 -2 59 C-1.385 55.189 -1.536 51.356 -1.562 47.5 C-1.543 46.455 -1.523 45.409 -1.502 44.332 C-1.503 43.325 -1.503 42.319 -1.504 41.281 C-1.503 40.823 -1.503 40.823 -1.498 38.502 C-2.146 35.274 -3.574 34.144 -6 32 C-7.427 29.147 -7.31 27.165 -7 24 C-5.125 21.125 -5.125 21.125 -3 19 C-2.34 19 -1.68 19 -1 19 C-1.012 17.712 -1.023 16.424 -1.035 15.098 C-1.045 13.419 -1.054 11.741 -1.062 10.062 C-1.071 9.212 -1.079 8.362 -1.088 7.486 C-1.091 6.677 -1.094 5.869 -1.098 5.035 C-1.103 4.286 -1.108 3.537 -1.114 2.766 C-1 1 -1 1 0 0 Z " fill="#2B315E" transform="translate(47,49)"/>
<path d="M0 0 C0.66 0 1.32 0 2 0 C2.329 0.871 2.657 1.743 2.996 2.641 C10.789 22.156 24.26 36.292 43.324 45.02 C52.89 48.525 63.887 48.195 73.238 44.332 C90.208 36.147 103.698 23.799 110.75 5.875 C111.162 4.926 111.575 3.977 112 3 C112.99 2.67 113.98 2.34 115 2 C110.97 19.002 100.657 34.378 86 44 C81.459 46.59 76.763 48.848 72 51 C71.224 51.385 70.448 51.771 69.648 52.168 C59.971 55.208 47.632 53.999 38.691 49.535 C37.803 49.029 36.915 48.522 36 48 C35.081 47.504 34.162 47.007 33.215 46.496 C19.406 38.436 5.455 23.118 1.27 7.227 C1.119 6.368 0.968 5.51 0.812 4.625 C0.654 3.751 0.495 2.877 0.332 1.977 C0.222 1.324 0.113 0.672 0 0 Z " fill="#CBCBF2" transform="translate(71,133)"/>
<path d="M0 0 C39.27 0 78.54 0 119 0 C119 4.95 119 9.9 119 15 C118.67 15 118.34 15 118 15 C117.67 11.7 117.34 8.4 117 5 C111.06 5 105.12 5 99 5 C98.67 5.66 98.34 6.32 98 7 C97.67 6.835 97.67 6.835 96 6 C93.773 5.913 91.542 5.893 89.313 5.902 C88.625 5.904 87.937 5.905 87.227 5.907 C85.727 5.911 84.226 5.917 82.726 5.925 C80.33 5.938 77.934 5.944 75.538 5.949 C69.568 5.962 63.599 5.986 57.629 6.01 C51.809 6.034 45.988 6.052 40.168 6.062 C39.364 6.064 38.561 6.066 37.733 6.067 C25.464 6.082 13.245 5.824 1 5 C1 6.98 1 8.96 1 11 C0.67 11 0.34 11 0 11 C0 7.37 0 3.74 0 0 Z " fill="#BFBFE8" transform="translate(69,113)"/>
<path d="M0 0 C15.673 0.038 28.501 3.613 40.188 14.5 C47.939 22.798 51.391 32.44 54.312 43.25 C53.653 43.25 52.993 43.25 52.312 43.25 C52.056 42.644 51.799 42.038 51.535 41.414 C45.157 27.454 35.025 19.806 21.227 13.938 C11.581 10.565 1.431 10.017 -8.688 9.25 C-8.785 3.098 -8.785 3.098 -8.688 1.25 C-6.676 -0.762 -2.748 0.01 0 0 Z " fill="#63D9EF" transform="translate(139.6875,48.75)"/>
<path d="M0 0 C0.827 0.005 1.654 0.009 2.506 0.014 C4.525 0.025 6.544 0.043 8.562 0.062 C8.562 3.032 8.562 6.002 8.562 9.062 C7.533 9.077 6.503 9.091 5.441 9.105 C-12.88 9.616 -28.679 14.2 -42.395 26.848 C-47.022 31.864 -50.019 37.728 -52.438 44.062 C-52.767 44.062 -53.097 44.062 -53.438 44.062 C-52.202 30.16 -45.407 18.746 -34.836 9.816 C-24.231 2.061 -12.881 -0.135 0 0 Z " fill="#63D9EF" transform="translate(117.4375,48.9375)"/>
<path d="M0 0 C0.223 5.017 0.386 10.031 0.494 15.051 C0.54 16.757 0.601 18.462 0.679 20.167 C1.311 34.326 1.311 34.326 -1.883 38.404 C-4.221 39.981 -6.366 41.012 -9 42 C-10.526 42.782 -12.047 43.573 -13.562 44.375 C-14.697 44.911 -15.831 45.447 -17 46 C-16.51 41.095 -15.889 36.286 -15 31.438 C-14.245 27.219 -13.911 23.176 -13.81 18.906 C-13.618 12.197 -12.795 7.084 -8.961 1.406 C-6.07 -0.667 -3.469 -0.09 0 0 Z " fill="#65E0F4" transform="translate(192,152)"/>
<path d="M0 0 C5.767 -0.186 5.767 -0.186 7.863 1.484 C13.17 9.78 12.726 18.187 12.913 27.704 C13.165 34.343 14.653 40.798 17 47 C16.652 46.86 16.652 46.86 14.892 46.151 C12.919 45.366 10.924 44.636 8.913 43.957 C5.186 42.354 2.795 40.968 0 38 C-2.02 31.827 -1.12 24.94 -0.75 18.562 C-0.69 16.764 -0.635 14.965 -0.586 13.166 C-0.454 8.773 -0.247 4.388 0 0 Z " fill="#6C92E2" transform="translate(67,152)"/>
<path d="M0 0 C17.817 -1.152 31.939 3.355 45.562 15.234 C50.039 19.505 54.582 24.204 57 30 C56.67 30.66 56.34 31.32 56 32 C55.466 31.348 54.933 30.695 54.383 30.023 C45.876 20.045 33.932 11.875 20.435 10.795 C19.963 10.776 19.963 10.776 17.578 10.684 C17.066 10.663 17.066 10.663 14.473 10.557 C13.409 10.517 12.346 10.478 11.25 10.438 C10.171 10.394 9.092 10.351 7.98 10.307 C5.32 10.201 2.66 10.1 0 10 C0 6.7 0 3.4 0 0 Z " fill="#61D1EA" transform="translate(131,36)"/>
<path d="M0 0 C0 3.3 0 6.6 0 10 C-1.016 9.977 -2.032 9.954 -3.078 9.93 C-21.076 9.64 -35.715 12.346 -49.562 24.571 C-52.572 27.563 -54.667 31.072 -56.73 34.75 C-58 37 -58 37 -60 39 C-58.314 28.173 -49.746 18.66 -41.48 11.957 C-28.407 2.538 -16.162 -0.646 0 0 Z " fill="#63D8EE" transform="translate(126,36)"/>
<path d="M0 0 C0.543 9.668 -0.05 21.414 -5 30 C-8.925 28.175 -12.219 25.717 -15.684 23.145 C-18.565 21.721 -19.984 22.08 -23 23 C-23.277 20.215 -23.277 20.215 -23 17 C-21.129 15.129 -21.129 15.129 -18.562 13.562 C-17.655 12.981 -16.748 12.4 -15.812 11.801 C-14.884 11.207 -13.956 10.612 -13 10 C-11.338 8.771 -9.691 7.522 -8.062 6.25 C-7.352 5.698 -6.642 5.147 -5.91 4.578 C-4 3 -4 3 -2.309 1.297 C-1 0 -1 0 0 0 Z " fill="#7092E7" transform="translate(174,169)"/>
<path d="M0 0 C0.99 0 1.98 0 3 0 C3 3.63 3 7.26 3 11 C3.66 11 4.32 11 5 11 C5.026 11.909 5.052 12.818 5.078 13.754 C5.461 22.23 6.728 29.727 9.16 37.855 C10 41 10 41 10 45 C8.564 45.108 7.126 45.186 5.688 45.25 C4.887 45.296 4.086 45.343 3.262 45.391 C1 45 1 45 -0.619 43.529 C-2.666 39.781 -2.41 36.354 -2.363 32.148 C-2.364 31.293 -2.364 30.438 -2.365 29.557 C-2.362 27.753 -2.353 25.949 -2.336 24.146 C-2.313 21.378 -2.316 18.611 -2.322 15.844 C-2.317 14.091 -2.31 12.339 -2.301 10.586 C-2.302 9.756 -2.303 8.926 -2.304 8.07 C-2.231 2.231 -2.231 2.231 0 0 Z " fill="#868DDC" transform="translate(59,102)"/>
<path d="M0 0 C2 0 2 0 4.125 2.062 C4.565 2.518 5.004 2.973 5.457 3.441 C9.758 7.786 14.134 11.609 19.5 14.562 C21.5 15.734 21.5 15.734 23 17 C23.5 20.312 23.5 20.312 23 23 C22.131 22.754 21.262 22.508 20.367 22.254 C15.944 21.92 14.551 23.222 11.125 25.938 C10.158 26.689 9.191 27.441 8.195 28.215 C7.471 28.804 6.746 29.393 6 30 C-0.208 23.061 -0.377 10.75 -0.105 1.879 C-0.071 1.259 -0.036 0.639 0 0 Z " fill="#7090E5" transform="translate(83,169)"/>
<path d="M0 0 C1.32 0.66 2.64 1.32 4 2 C4.074 7.642 4.129 13.283 4.165 18.925 C4.18 20.845 4.2 22.764 4.226 24.684 C4.263 27.442 4.28 30.199 4.293 32.957 C4.308 33.816 4.324 34.676 4.34 35.561 C4.34 35.962 4.34 35.962 4.341 37.988 C4.347 38.691 4.354 39.395 4.361 40.121 C3.888 42.583 2.951 43.473 1 45 C-1.262 45.293 -1.262 45.293 -3.688 45.188 C-4.092 45.174 -4.092 45.174 -6.137 45.105 C-6.752 45.071 -7.366 45.036 -8 45 C-7.374 40.946 -6.522 37.033 -5.5 33.062 C-3.76 25.711 -3.302 18.529 -3 11 C-2.01 11 -1.02 11 0 11 C0 7.37 0 3.74 0 0 Z " fill="#898EE0" transform="translate(196,102)"/>
<path d="M0 0 C7 1 7 1 8.913 2.719 C10.229 5.48 10.388 7.443 10.398 10.5 C10.402 11.552 10.406 12.604 10.41 13.688 C10.399 14.781 10.387 15.874 10.375 17 C10.387 18.093 10.398 19.186 10.41 20.312 C10.406 21.364 10.402 22.416 10.398 23.5 C10.395 24.459 10.392 25.418 10.388 26.406 C9.914 29.572 9.347 30.814 7 33 C4.69 33.66 2.38 34.32 0 35 C0 23.45 0 11.9 0 0 Z " fill="#CACBF0" transform="translate(205,107)"/>
<path d="M0 0 C0 2.64 0 5.28 0 8 C-1.416 8.793 -2.833 9.584 -4.25 10.375 C-5.039 10.816 -5.828 11.257 -6.641 11.711 C-11.558 14.397 -15.279 16.093 -21 15 C-31.258 10.742 -31.258 10.742 -34 8 C-34.041 5.667 -34.042 3.333 -34 1 C-33.054 1.324 -32.108 1.647 -31.133 1.98 C-26.395 3.329 -21.771 3.331 -16.875 3.312 C-15.995 3.329 -15.114 3.345 -14.207 3.361 C-8.804 3.365 -4.644 0 0 0 Z " fill="#6699DF" transform="translate(146,190)"/>
<path d="M0 0 C0 11.22 0 22.44 0 34 C-7 33 -7 33 -8.906 31.279 C-11.055 26.801 -10.554 21.94 -10.562 17.062 C-10.599 15.978 -10.636 14.893 -10.674 13.775 C-10.716 6.083 -10.716 6.083 -8.765 3.132 C-5.753 0.439 -4.057 0 0 0 Z " fill="#D0D0F5" transform="translate(52,107)"/>
<path d="M0 0 C3.562 0.25 3.562 0.25 6.562 2.25 C6.562 1.59 6.562 0.93 6.562 0.25 C12.941 -0.111 12.941 -0.111 15.5 1.375 C17.093 4.186 16.939 6.055 16.562 9.25 C14.375 12.023 14.375 12.023 11.562 14.625 C10.634 15.499 9.706 16.373 8.75 17.273 C8.028 17.926 7.306 18.578 6.562 19.25 C1.581 17.04 -2.153 13.569 -5.438 9.25 C-6.062 5.375 -6.062 5.375 -5.438 2.25 C-3.438 0.25 -3.438 0.25 0 0 Z " fill="#F8F8FB" transform="translate(201.4375,168.75)"/>
<path d="M0 0 C-0.846 0.907 -1.691 1.815 -2.562 2.75 C-13.059 15.013 -18.089 29.243 -18.363 45.203 C-19.218 48.956 -21.15 50.517 -24 53 C-24.135 50.103 -24.234 47.212 -24.312 44.312 C-24.354 43.496 -24.396 42.679 -24.439 41.838 C-24.565 35.646 -24.565 35.646 -21.504 32.145 C-20.678 31.437 -19.851 30.729 -19 30 C-18.605 26.177 -18.787 23.638 -20 20 C-19.913 17.601 -19.76 15.205 -19.562 12.812 C-19.461 11.54 -19.359 10.268 -19.254 8.957 C-19.17 7.981 -19.086 7.005 -19 6 C-16.401 4.801 -13.797 3.615 -11.188 2.438 C-10.819 2.266 -10.819 2.266 -8.951 1.4 C-8.239 1.081 -7.527 0.762 -6.793 0.434 C-6.138 0.135 -5.484 -0.163 -4.809 -0.471 C-3 -1 -3 -1 0 0 Z " fill="#A19FEA" transform="translate(76,50)"/>
<path d="M0 0 C2.97 0.99 5.94 1.98 9 3 C9 14.22 9 25.44 9 37 C4.164 34.582 1.718 32.154 0 27 C-0.083 24.935 -0.107 22.867 -0.098 20.801 C-0.094 19.592 -0.091 18.384 -0.088 17.139 C-0.08 15.876 -0.071 14.613 -0.062 13.312 C-0.06 12.675 -0.06 12.675 -0.049 9.451 C-0.037 6.301 -0.021 3.15 0 0 Z " fill="#66E1F5" transform="translate(54,149)"/>
<path d="M0 0 C4.111 1.624 8.185 3.329 12.25 5.062 C12.568 5.197 12.568 5.197 14.18 5.877 C18.884 7.884 18.884 7.884 20 9 C20.264 11.506 20.468 13.987 20.625 16.5 C20.677 17.203 20.728 17.905 20.781 18.629 C20.898 20.417 20.954 22.209 21 24 C20.67 24.33 20.34 24.66 20 25 C19.625 27.688 19.625 27.688 20 31 C20.826 31.865 21.653 32.73 22.504 33.621 C25.948 37.558 25.572 41.363 25.312 46.375 C25.29 47.206 25.267 48.038 25.244 48.895 C25.186 50.93 25.096 52.965 25 55 C21.661 52.298 19.728 50.339 19.25 46.066 C19.151 44.566 19.068 43.065 19 41.562 C17.67 25.108 10.904 12.267 0 0 Z " fill="#9F9CEA" transform="translate(180,48)"/>
<path d="M0 0 C2.318 1.891 3.669 3.338 5 6 C5.04 8.333 5.043 10.667 5 13 C4.34 13 3.68 13 3 13 C2.711 13.639 2.423 14.279 2.125 14.938 C1 17 1 17 -1 18 C-8.304 18.232 -8.304 18.232 -12 17 C-13.994 13.012 -13.647 8.325 -13 4 C-9.948 -1.222 -5.478 -1.725 0 0 Z " fill="#3A4C7D" transform="translate(164,124)"/>
<path d="M0 0 C-0.32 0.144 -0.32 0.144 -1.938 0.875 C-4 2 -4 2 -5 4 C-5.56 3.863 -6.12 3.726 -6.697 3.584 C-16.449 1.492 -26.259 1.548 -36.188 1.375 C-38.016 1.337 -39.845 1.298 -41.674 1.258 C-46.116 1.163 -50.558 1.078 -55 1 C-55 0.34 -55 -0.32 -55 -1 C-56.98 -0.835 -56.98 -0.835 -67 0 C-67 -0.33 -67 -0.66 -67 -1 C-44.926 -6.367 -21.952 -5.374 0 0 Z " fill="#D5D6DF" transform="translate(164,31)"/>
<path d="M0 0 C0 8.25 0 16.5 0 25 C-0.33 25 -0.66 25 -1 25 C-1 20.71 -1 16.42 -1 12 C-2.32 12.33 -3.64 12.66 -5 13 C-5.941 14.785 -5.941 14.785 -6.562 17.062 C-6.797 17.867 -7.032 18.671 -7.273 19.5 C-7.513 20.325 -7.753 21.15 -8 22 C-8.547 23.526 -9.109 25.048 -9.688 26.562 C-10.121 27.697 -10.554 28.831 -11 30 C-11.66 30 -12.32 30 -13 30 C-13.33 30.66 -13.66 31.32 -14 32 C-14.006 28.353 -13.946 24.709 -13.875 21.062 C-13.878 20.041 -13.88 19.019 -13.883 17.967 C-13.716 11.439 -12.503 7.039 -8.965 1.545 C-7 0 -7 0 0 0 Z " fill="#6F95E8" transform="translate(192,152)"/>
<path d="M0 0 C2 3 2 3 2 5 C6.161 6.161 10.2 6.162 14.492 6.168 C15.316 6.171 16.139 6.175 16.988 6.178 C18.728 6.183 20.468 6.185 22.208 6.185 C24.859 6.187 27.509 6.206 30.16 6.225 C31.854 6.228 33.548 6.23 35.242 6.23 C36.03 6.238 36.818 6.245 37.629 6.252 C42.145 6.234 45.744 5.71 50 4 C49.688 6.375 49.688 6.375 49 9 C45.972 11.019 45.359 11.254 41.959 11.291 C41.152 11.303 40.344 11.316 39.512 11.329 C38.643 11.331 37.774 11.334 36.879 11.336 C36.431 11.339 36.431 11.339 34.163 11.356 C32.267 11.366 30.372 11.371 28.476 11.371 C25.577 11.375 22.679 11.411 19.779 11.449 C17.938 11.455 16.096 11.459 14.254 11.461 C13.387 11.475 12.52 11.49 11.627 11.504 C5.648 11.459 5.648 11.459 2.469 9.206 C0.48 6.219 0.272 3.534 0 0 Z " fill="#CCCCF5" transform="translate(103,97)"/>
<path d="M0 0 C1.32 0.66 2.64 1.32 4 2 C4.029 5.958 4.047 9.917 4.062 13.875 C4.071 15.003 4.079 16.131 4.088 17.293 C4.091 18.369 4.094 19.446 4.098 20.555 C4.103 21.55 4.108 22.545 4.114 23.57 C4 26 4 26 3 28 C1.02 27.67 -0.96 27.34 -3 27 C-3 21.72 -3 16.44 -3 11 C-2.01 11 -1.02 11 0 11 C0 7.37 0 3.74 0 0 Z " fill="#A29FE7" transform="translate(196,102)"/>
<path d="M0 0 C5.75 1.875 5.75 1.875 8 3 C16.777 3.571 24.74 3.265 33 0 C32.707 1.867 32.707 1.867 32 4 C29.663 5.499 27.46 6.764 25 8 C24.361 8.412 23.721 8.825 23.062 9.25 C18.221 11.011 14.549 10.591 9.848 8.797 C1.296 4.77 1.296 4.77 0.152 1.797 C0.102 1.204 0.052 0.611 0 0 Z " fill="#A6A3ED" transform="translate(112,195)"/>
<path d="M0 0 C0.33 0 0.66 0 1 0 C1.121 0.929 1.242 1.859 1.367 2.816 C1.535 4.053 1.702 5.289 1.875 6.562 C2.037 7.781 2.2 8.999 2.367 10.254 C3 14 3 14 5 21 C12.92 21 20.84 21 29 21 C29.33 20.34 29.66 19.68 30 19 C30 19.99 30 20.98 30 22 C18.45 22 6.9 22 -5 22 C-5 12.97 -5 12.97 -3.625 8.75 C-3.37 7.94 -3.115 7.131 -2.852 6.297 C-2.038 4.103 -1.091 2.068 0 0 Z " fill="#8588D3" transform="translate(72,87)"/>
<path d="M0 0 C11.956 2.657 21.857 9.457 28.75 19.566 C32.69 26.334 34.964 33.468 37 41 C36.34 41 35.68 41 35 41 C34.709 40.371 34.417 39.742 34.117 39.094 C31.295 33.2 28.121 28.069 24 23 C24.66 23 25.32 23 26 23 C26 22.01 26 21.02 26 20 C25.34 20 24.68 20 24 20 C22.492 18.539 22.492 18.539 20.875 16.625 C20.336 15.999 19.797 15.372 19.242 14.727 C18 13 18 13 18 11 C17.443 10.733 16.886 10.466 16.312 10.191 C12.902 8.434 9.692 6.369 6.438 4.34 C4.237 3.131 2.45 2.459 0 2 C0 1.34 0 0.68 0 0 Z " fill="#53A8D3" transform="translate(157,51)"/>
<path d="M0 0 C3.5 0.438 3.5 0.438 5.438 1.562 C7.03 4.373 6.953 6.265 6.5 9.438 C4.875 11.812 4.875 11.812 2.5 13.438 C-0.702 13.895 -2.576 13.992 -5.375 12.312 C-7.036 9.545 -6.888 7.607 -6.5 4.438 C-4.867 0.786 -4.021 0.503 0 0 Z " fill="#65E1F3" transform="translate(97.5,126.5625)"/>
<path d="M0 0 C3.562 0.312 3.562 0.312 5.5 1.438 C7.092 4.248 7.016 6.14 6.562 9.312 C4.938 11.688 4.938 11.688 2.562 13.312 C-0.5 13.812 -0.5 13.812 -3.438 13.312 C-5.375 11.75 -5.375 11.75 -6.438 9.312 C-5.984 0.544 -5.984 0.544 0 0 Z " fill="#65E1F4" transform="translate(159.4375,126.6875)"/>
<path d="M0 0 C0.99 0 1.98 0 3 0 C3 3.63 3 7.26 3 11 C3.66 11 4.32 11 5 11 C5 16.28 5 21.56 5 27 C3.02 27 1.04 27 -1 27 C-1.029 22.688 -1.047 18.375 -1.062 14.062 C-1.071 12.831 -1.079 11.599 -1.088 10.33 C-1.091 9.16 -1.094 7.99 -1.098 6.785 C-1.103 5.701 -1.108 4.617 -1.114 3.5 C-1 1 -1 1 0 0 Z " fill="#A4A1EC" transform="translate(59,102)"/>
<path d="M0 0 C0 0.66 0 1.32 0 2 C0.99 2.33 1.98 2.66 3 3 C2.697 3.049 2.697 3.049 1.164 3.297 C-9.707 5.237 -17.589 8.838 -26 16 C-30.735 19.912 -30.735 19.912 -34 21 C-31.307 14.941 -27.173 11.039 -21.75 7.375 C-21.173 6.983 -20.596 6.59 -20.001 6.186 C-13.415 1.81 -7.956 -0.497 0 0 Z " fill="#2D3669" transform="translate(105,47)"/>
<path d="M0 0 C1.851 2.777 3.462 5.574 5.062 8.5 C5.59 9.459 6.117 10.418 6.66 11.406 C8 14 8 14 9 17 C9.66 17 10.32 17 11 17 C11.289 17.639 11.578 18.279 11.875 18.938 C13 21 13 21 15 22 C15.625 24.062 15.625 24.062 16 26 C12.334 24.635 9.089 22.972 5.75 20.938 C4.879 20.41 4.007 19.883 3.109 19.34 C1 18 1 18 0 17 C-0.073 14.137 -0.092 11.299 -0.062 8.438 C-0.058 7.631 -0.053 6.825 -0.049 5.994 C-0.037 3.996 -0.019 1.998 0 0 Z " fill="#63D9F1" transform="translate(68,173)"/>
<path d="M0 0 C0.33 0 0.66 0 1 0 C1 5.94 1 11.88 1 18 C-0.32 18.165 -0.32 18.165 -7 19 C-7 14.38 -7 9.76 -7 5 C-5.02 4.34 -3.04 3.68 -1 3 C-0.67 2.01 -0.34 1.02 0 0 Z " fill="#519FCE" transform="translate(203,147)"/>
<path d="M0 0 C3.088 3.088 2.294 6.293 2.322 10.512 C2.319 11.622 2.316 12.731 2.312 13.875 C2.329 14.977 2.345 16.079 2.361 17.215 C2.362 18.276 2.363 19.337 2.363 20.43 C2.366 21.401 2.369 22.373 2.372 23.375 C1.934 26.462 1.179 27.792 -1 30 C-4.688 31.25 -4.688 31.25 -8 32 C-8 28.37 -8 24.74 -8 21 C-6.845 20.835 -6.845 20.835 -1 20 C-0.098 17.293 0.119 15.762 0.098 12.988 C0.094 12.231 0.091 11.474 0.088 10.693 C0.084 10.301 0.084 10.301 0.062 8.312 C0.058 7.515 0.053 6.718 0.049 5.896 C0.037 3.931 0.019 1.965 0 0 Z " fill="#9393D5" transform="translate(213,110)"/>
<path d="M0 0 C5.387 6.714 6.401 13.579 6 22 C2.7 22 -0.6 22 -4 22 C-3.795 21.334 -3.59 20.667 -3.379 19.98 C-1.428 13.306 -0.389 6.939 0 0 Z " fill="#9596EB" transform="translate(184,86)"/>
<path d="M0 0 C-1.087 3.261 -2.165 4.105 -5.125 6 C-12.463 10.943 -16.873 19.96 -20 28 C-21.625 31.354 -23.309 34.678 -25 38 C-25.33 38 -25.66 38 -26 38 C-24.732 23.739 -17.747 12.75 -7.016 3.594 C-2.471 0 -2.471 0 0 0 Z " fill="#519CCB" transform="translate(90,55)"/>
<path d="M0 0 C0.33 0 0.66 0 1 0 C1.037 1.048 1.075 2.096 1.113 3.176 C1.179 4.555 1.245 5.934 1.312 7.312 C1.324 7.658 1.324 7.658 1.381 9.404 C1.652 14.51 1.652 14.51 3.375 16.938 C5.512 18.335 7.492 18.661 10 19 C10 22.3 10 25.6 10 29 C3.516 28.511 3.516 28.511 1.288 26.306 C-0.307 23.451 -0.345 21.618 -0.293 18.359 C-0.283 17.289 -0.274 16.22 -0.264 15.117 C-0.239 14.006 -0.213 12.895 -0.188 11.75 C-0.174 10.623 -0.16 9.497 -0.146 8.336 C-0.111 5.557 -0.062 2.779 0 0 Z " fill="#8686C2" transform="translate(42,112)"/>
<path d="M0 0 C2.97 0.99 5.94 1.98 9 3 C9 14.22 9 25.44 9 37 C8.34 36.67 7.68 36.34 7 36 C7.33 28.41 7.66 20.82 8 13 C6.35 12.67 4.7 12.34 3 12 C2.01 11.34 1.02 10.68 0 10 C-0.293 7.617 -0.293 7.617 -0.188 4.875 C-0.16 3.965 -0.133 3.055 -0.105 2.117 C-0.071 1.419 -0.036 0.72 0 0 Z " fill="#55B3DE" transform="translate(54,149)"/>
<path d="M0 0 C-0.679 3.115 -1.741 5.851 -3.062 8.75 C-3.244 9.15 -3.244 9.15 -4.16 11.172 C-4.437 11.775 -4.714 12.378 -5 13 C-4.34 13 -3.68 13 -3 13 C-0.857 20.429 -0.857 20.429 0 24 C-2.312 24 -2.312 24 -5 23 C-6.038 20.977 -6.689 18.994 -7.324 16.812 C-8 15 -8 15 -10 14 C-9.67 12.35 -9.34 10.7 -9 9 C-8.34 9 -7.68 9 -7 9 C-6.876 7.701 -6.752 6.401 -6.625 5.062 C-6.414 2.848 -6.414 2.848 -6 1 C-4 0 -4 0 0 0 Z " fill="#74E9F8" transform="translate(121,73)"/>
<path d="M0 0 C2.312 0 2.312 0 5 1 C6.038 3.023 6.689 5.006 7.324 7.188 C8 9 8 9 10 10 C10 11.32 10 12.64 10 14 C9.01 14.33 8.02 14.66 7 15 C5.812 18.562 5.812 18.562 5 22 C3.35 22.33 1.7 22.66 0 23 C0 22.01 0 21.02 0 20 C0.66 20 1.32 20 2 20 C2.893 14.064 2.97 8.93 2 3 C1.34 3 0.68 3 0 3 C0 2.01 0 1.02 0 0 Z " fill="#74E8F7" transform="translate(137,73)"/>
<path d="M0 0 C0.99 0 1.98 0 3 0 C2.469 5.972 1.154 10.946 -1.062 16.5 C-1.203 16.864 -1.203 16.864 -1.916 18.703 C-2.603 20.472 -3.3 22.236 -4 24 C-5.32 24 -6.64 24 -8 24 C-7.333 18.775 -5.78 14.112 -4 9.188 C-3.727 8.412 -3.453 7.637 -3.172 6.838 C-1.137 1.137 -1.137 1.137 0 0 Z " fill="#7BEAF8" transform="translate(131,73)"/>
<path d="M0 0 C0.66 0 1.32 0 2 0 C2.868 2.892 3.72 5.788 4.562 8.688 C4.809 9.504 5.056 10.321 5.311 11.162 C7.471 18.676 7.471 18.676 6 23 C5.01 23 4.02 23 3 23 C2.322 20.816 1.658 18.628 1 16.438 C0.629 15.219 0.257 14.001 -0.125 12.746 C-1.128 8.45 -2.04 4.08 0 0 Z " fill="#333A6C" transform="translate(96,75)"/>
<path d="M0 0 C2.31 0.66 4.62 1.32 7 2 C7.982 6.053 8.082 9.839 8 14 C7.237 13.691 6.474 13.381 5.688 13.062 C3.812 12.321 1.913 11.638 0 11 C0 7.37 0 3.74 0 0 Z " fill="#F5F5F9" transform="translate(206,107)"/>
<path d="M0 0 C3.875 1.875 3.875 1.875 5 3 C5.086 4.343 5.107 5.69 5.098 7.035 C5.096 7.44 5.096 7.44 5.088 9.486 C5.08 10.336 5.071 11.187 5.062 12.062 C5.058 12.917 5.053 13.771 5.049 14.65 C5.037 16.767 5.019 18.883 5 21 C0.263 17.218 0.263 17.218 -0.413 14.087 C-0.491 11.935 -0.437 9.837 -0.312 7.688 C-0.29 6.947 -0.267 6.206 -0.244 5.443 C-0.186 3.628 -0.096 1.814 0 0 Z " fill="#EBEDF6" transform="translate(200,82)"/>
<path d="M0 0 C0.136 2.564 0.234 5.121 0.312 7.688 C0.354 8.409 0.396 9.13 0.439 9.873 C0.538 14.196 0.379 15.545 -2.52 19.02 C-3.338 19.673 -4.157 20.327 -5 21 C-5.108 18.062 -5.187 15.127 -5.25 12.188 C-5.284 11.354 -5.317 10.521 -5.352 9.662 C-5.451 3.479 -5.451 3.479 -3.047 0.926 C-1 0 -1 0 0 0 Z " fill="#EEEFF7" transform="translate(57,82)"/>
<path d="M0 0 C0 3.3 0 6.6 0 10 C-0.949 10.454 -1.898 10.907 -2.875 11.375 C-6 13 -6 13 -8 15 C-8.623 4.957 -8.623 4.957 -6.25 1.312 C-4 0 -4 0 0 0 Z " fill="#FBFBFD" transform="translate(51,108)"/>
<path d="M0 0 C7.137 1.347 12.757 4.351 19 8 C18.67 9.32 18.34 10.64 18 12 C17.661 11.795 17.661 11.795 15.945 10.758 C9.685 7.133 4.187 4.904 -3 4 C-2.01 2.68 -1.02 1.36 0 0 Z " fill="#2E3A6C" transform="translate(156,47)"/>
<path d="M0 0 C3.5 0.125 3.5 0.125 4.5 1.125 C4.688 4.062 4.688 4.062 4.5 7.125 C2.5 9.125 2.5 9.125 0 9.375 C-2.5 9.125 -2.5 9.125 -4.5 7.125 C-4.688 4.062 -4.688 4.062 -4.5 1.125 C-3.5 0.125 -3.5 0.125 0 0 Z " fill="#63D9EE" transform="translate(207.5,71.875)"/>
<path d="M0 0 C2.938 0.188 2.938 0.188 3.938 1.188 C4.125 4.125 4.125 4.125 3.938 7.188 C1.938 9.188 1.938 9.188 -0.562 9.438 C-3.062 9.188 -3.062 9.188 -5.062 7.188 C-5.312 4.688 -5.312 4.688 -5.062 2.188 C-3.062 0.188 -3.062 0.188 0 0 Z " fill="#64DDF1" transform="translate(50.0625,71.8125)"/>
<path d="M0 0 C16.17 0 32.34 0 49 0 C47.35 1.65 45.7 3.3 44 5 C44 3.68 44 2.36 44 1 C29.48 1.33 14.96 1.66 0 2 C0 1.34 0 0.68 0 0 Z " fill="#E6E8F5" transform="translate(104,118)"/>
<path d="M0 0 C-0.99 0.66 -1.98 1.32 -3 2 C8.22 2.33 19.44 2.66 31 3 C31 3.33 31 3.66 31 4 C19.12 4 7.24 4 -5 4 C-5 3.34 -5 2.68 -5 2 C-6.98 2.165 -6.98 2.165 -17 3 C-17 2.67 -17 2.34 -17 2 C-11.192 0.494 -6.002 -0.218 0 0 Z " fill="#8588AA" transform="translate(114,28)"/>
<path d="M0 0 C0.99 0 1.98 0 3 0 C3 8.25 3 16.5 3 25 C2.67 25 2.34 25 2 25 C2 20.71 2 16.42 2 12 C0.68 11.67 -0.64 11.34 -2 11 C-1.34 7.37 -0.68 3.74 0 0 Z " fill="#56B5E0" transform="translate(189,152)"/>
<path d="M0 0 C0.66 0.33 1.32 0.66 2 1 C1.361 1.763 0.721 2.526 0.062 3.312 C-2 6 -2 6 -3 9 C-4.172 10.139 -5.347 11.276 -6.531 12.402 C-8.94 15.022 -10.76 18.017 -12.668 21.012 C-14 23 -14 23 -16 25 C-14.408 14.779 -6.906 7.213 0 0 Z " fill="#57B0D4" transform="translate(82,50)"/>
<path d="M0 0 C7.193 0.462 14.003 1.251 21 3 C20.361 3.289 19.721 3.578 19.062 3.875 C17 5 17 5 16 7 C12.37 6.34 8.74 5.68 5 5 C5 4.67 5 4.34 5 4 C6.98 4 8.96 4 11 4 C11 3.34 11 2.68 11 2 C7.7 2 4.4 2 1 2 C0.67 1.34 0.34 0.68 0 0 Z " fill="#A2A5BD" transform="translate(143,28)"/>
<path d="M0 0 C5.212 2.527 8.388 6.618 12 11 C11.01 11.99 10.02 12.98 9 14 C8.518 13.446 8.036 12.891 7.539 12.32 C6.907 11.596 6.276 10.871 5.625 10.125 C4.999 9.406 4.372 8.686 3.727 7.945 C2.526 6.592 1.279 5.279 0 4 C0 2.68 0 1.36 0 0 Z " fill="#2D3567" transform="translate(175,56)"/>
<path d="M0 0 C3.114 4.152 3.816 5.937 4 11 C2.562 12.688 2.562 12.688 1 14 C1 15.32 1 16.64 1 18 C0.01 18 -0.98 18 -2 18 C-1.34 12.06 -0.68 6.12 0 0 Z " fill="#A19EF0" transform="translate(184,86)"/>
<path d="M0 0 C0 0.33 0 0.66 0 1 C-2.31 1.66 -4.62 2.32 -7 3 C-8.25 9.625 -8.25 9.625 -6 13 C-6.99 13.33 -7.98 13.66 -9 14 C-9.66 13.67 -10.32 13.34 -11 13 C-11.108 11.231 -11.186 9.459 -11.25 7.688 C-11.296 6.701 -11.343 5.715 -11.391 4.699 C-11 2 -11 2 -9.219 0.125 C-5.958 -1.528 -3.485 -0.737 0 0 Z " fill="#415C8D" transform="translate(162,126)"/>
<path d="M0 0 C6.092 0.332 6.092 0.332 8.711 2.258 C10.394 4.532 10.309 5.891 10.188 8.688 C10.16 9.496 10.133 10.304 10.105 11.137 C10.071 11.752 10.036 12.366 10 13 C9.67 13 9.34 13 9 13 C8.711 11.886 8.423 10.773 8.125 9.625 C7 6 7 6 5 4 C2.682 3.281 0.349 2.609 -2 2 C-1.34 1.34 -0.68 0.68 0 0 Z " fill="#3C5082" transform="translate(157,123)"/>
<path d="M0 0 C0.99 0 1.98 0 3 0 C3 0.66 3 1.32 3 2 C3.66 2.66 4.32 3.32 5 4 C3.886 4.103 2.773 4.206 1.625 4.312 C0.429 4.539 -0.767 4.766 -2 5 C-4.125 8.188 -4.502 10.265 -5 14 C-5.66 14 -6.32 14 -7 14 C-7.437 8.758 -7.437 8.758 -7 6 C-4.625 3.5 -4.625 3.5 -2 2 C-1.34 2 -0.68 2 0 2 C0 1.34 0 0.68 0 0 Z " fill="#3E5687" transform="translate(96,123)"/>
<path d="M0 0 C-1.522 4.158 -4.527 6.201 -8 8.688 C-8.273 8.889 -8.273 8.889 -9.656 9.908 C-11.718 11.417 -13.711 12.855 -16 14 C-14.512 10.412 -12.484 8.399 -9.562 5.875 C-8.78 5.192 -7.998 4.509 -7.191 3.805 C-2.571 0 -2.571 0 0 0 Z " fill="#52A3D0" transform="translate(90,55)"/>
<path d="M0 0 C5.61 0 11.22 0 17 0 C16.67 0.66 16.34 1.32 16 2 C13.286 2.312 10.661 2.513 7.938 2.625 C7.179 2.664 6.42 2.702 5.639 2.742 C3.76 2.837 1.88 2.919 0 3 C0 2.01 0 1.02 0 0 Z " fill="#252A5D" transform="translate(105,46)"/>
<path d="M0 0 C-1.98 2.31 -3.96 4.62 -6 7 C-7.98 6.01 -9.96 5.02 -12 4 C-8.599 0.599 -4.672 -1.557 0 0 Z " fill="#A6A4EE" transform="translate(76,50)"/>
<path d="M0 0 C0.66 0.33 1.32 0.66 2 1 C1.67 1.495 1.67 1.495 0 4 C0 4.99 0 5.98 0 7 C-2.31 8.32 -4.62 9.64 -7 11 C-7 7.221 -6.003 6.539 -3.5 3.812 C-2.85 3.097 -2.201 2.382 -1.531 1.645 C-1.026 1.102 -0.521 0.559 0 0 Z " fill="#61D2EB" transform="translate(87,46)"/>
<path d="M0 0 C5.75 1.875 5.75 1.875 8 3 C8.625 5.562 8.625 5.562 9 8 C7.68 7.435 6.369 6.847 5.062 6.25 C4.697 6.088 4.697 6.088 2.848 5.266 C1 4 1 4 0.246 1.859 C0.165 1.246 0.084 0.632 0 0 Z " fill="#A19EEA" transform="translate(112,195)"/>
<path d="M0 0 C1.65 0.33 3.3 0.66 5 1 C5.081 2.603 5.139 4.208 5.188 5.812 C5.222 6.706 5.257 7.599 5.293 8.52 C4.951 11.416 4.246 12.226 2 14 C1.01 13.67 0.02 13.34 -1 13 C-0.505 12.464 -0.01 11.928 0.5 11.375 C2.411 8.349 2.375 6.523 2 3 C1.34 2.01 0.68 1.02 0 0 Z " fill="#436494" transform="translate(101,127)"/>
<path d="M0 0 C0.33 0 0.66 0 1 0 C1 2.97 1 5.94 1 9 C-1.343 8.744 -3.678 8.407 -6 8 C-6.33 7.34 -6.66 6.68 -7 6 C-6.01 6 -5.02 6 -4 6 C-1.6 4.062 -1.002 3.006 0 0 Z " fill="#898AD8" transform="translate(51,132)"/>
<path d="M0 0 C2.494 1.204 4.681 2.454 7 4 C7.688 6.125 7.688 6.125 8 8 C4.677 6.832 2.166 5.851 0 3 C0 2.01 0 1.02 0 0 Z " fill="#5FCAE6" transform="translate(76,191)"/>
<path d="M0 0 C0.33 0 0.66 0 1 0 C1.248 0.928 1.495 1.856 1.75 2.812 C3.065 6.165 3.98 7.188 7 9 C4.69 9.66 2.38 10.32 0 11 C0 7.37 0 3.74 0 0 Z " fill="#8488D0" transform="translate(205,131)"/>
<path d="M0 0 C0 1.65 0 3.3 0 5 C-1.98 5.33 -3.96 5.66 -6 6 C-6 4.68 -6 3.36 -6 2 C-2.25 0 -2.25 0 0 0 Z " fill="#66E3F5" transform="translate(203,159)"/>
<path d="M0 0 C-0.386 2.798 -0.801 3.821 -2.938 5.75 C-5 7 -5 7 -7 7 C-4.605 0 -4.605 0 0 0 Z " fill="#A09DE9" transform="translate(145,195)"/>
<path d="M0 0 C3.375 4.5 3.375 4.5 4 8 C3.34 8 2.68 8 2 8 C2 8.66 2 9.32 2 10 C1.34 10 0.68 10 0 10 C0 6.7 0 3.4 0 0 Z " fill="#9695E0" transform="translate(184,86)"/>
<path d="M0 0 C1.65 1.65 3.3 3.3 5 5 C4.01 5.99 3.02 6.98 2 8 C0 6 0 6 -0.125 2.875 C-0.084 1.926 -0.042 0.978 0 0 Z " fill="#9E9CEF" transform="translate(43,127)"/>
<path d="M0 0 C2.31 0 4.62 0 7 0 C7 0.66 7 1.32 7 2 C7.99 2.33 8.98 2.66 10 3 C8.515 3.165 8.515 3.165 1 4 C0.67 2.68 0.34 1.36 0 0 Z " fill="#303D70" transform="translate(98,47)"/>
<path d="M0 0 C0.66 0.33 1.32 0.66 2 1 C2 2.32 2 3.64 2 5 C-0.97 5 -3.94 5 -7 5 C-5.68 4.34 -4.36 3.68 -3 3 C-1.25 1.375 -1.25 1.375 0 0 Z " fill="#8088D6" transform="translate(67,142)"/>
<path d="M0 0 C1 2 1 2 0.441 3.945 C0.151 4.665 -0.139 5.384 -0.438 6.125 C-0.725 6.849 -1.012 7.574 -1.309 8.32 C-1.537 8.875 -1.765 9.429 -2 10 C-2.66 9.34 -3.32 8.68 -4 8 C-3.773 5.043 -3.388 3.45 -1.438 1.188 C-0.963 0.796 -0.489 0.404 0 0 Z " fill="#C7C8E9" transform="translate(185,135)"/>
<path d="M0 0 C0.99 0 1.98 0 3 0 C3.66 2.31 4.32 4.62 5 7 C3.68 7 2.36 7 1 7 C0.67 4.69 0.34 2.38 0 0 Z " fill="#A29FF0" transform="translate(72,101)"/>
<path d="M0 0 C2 3 2 3 2 5 C3.32 5.33 4.64 5.66 6 6 C5.34 7.32 4.68 8.64 4 10 C1.203 7.932 0.973 6.856 0.312 3.312 C0.209 2.219 0.106 1.126 0 0 Z " fill="#A4A8D0" transform="translate(103,97)"/>
<path d="M0 0 C3.083 1.199 6.063 2.477 9 4 C8.01 4.99 7.02 5.98 6 7 C4.02 4.69 2.04 2.38 0 0 Z " fill="#9598E2" transform="translate(180,48)"/>
<path d="M0 0 C1.32 1.32 2.64 2.64 4 4 C3.67 4.99 3.34 5.98 3 7 C2.34 7 1.68 7 1 7 C0.34 5.02 -0.32 3.04 -1 1 C-0.67 0.67 -0.34 0.34 0 0 Z " fill="#272E5F" transform="translate(186,68)"/>
<path d="M0 0 C0.99 0.33 1.98 0.66 3 1 C3 2.65 3 4.3 3 6 C2.01 6.33 1.02 6.66 0 7 C0 4.69 0 2.38 0 0 Z " fill="#A8A5E9" transform="translate(196,102)"/>
</svg>
