<svg xmlns="http://www.w3.org/2000/svg" viewBox="0 0 32 32" fill="none">
  <defs>
    <linearGradient id="g" x1="4" y1="4" x2="28" y2="28" gradientUnits="userSpaceOnUse">
      <stop stop-color="#fbbf24"/>
      <stop offset="1" stop-color="#d97706"/>
    </linearGradient>
  </defs>
  <circle cx="16" cy="16" r="14" stroke="url(#g)" stroke-width="2" fill="none"/>
  <path d="M16 6c-3 0-5.5 2-6 4.5-.3 1.5.2 3 1 4L16 22l5-7.5c.8-1 1.3-2.5 1-4C21.5 8 19 6 16 6z" fill="url(#g)" opacity="0.9"/>
  <circle cx="14" cy="13" r="1.2" fill="#0c0a09"/>
  <circle cx="18" cy="13" r="1.2" fill="#0c0a09"/>
  <path d="M13.5 16.5c.5 1 3 1.5 5 0" stroke="#0c0a09" stroke-width="0.8" stroke-linecap="round" fill="none"/>
  <path d="M10 22c1.5 2 4.5 3.5 6 3.5s4.5-1.5 6-3.5" stroke="url(#g)" stroke-width="1.5" stroke-linecap="round" fill="none"/>
</svg>
